# xmcd
#
# Track frame offsets: 
#        150
#        17254
#        35696
#        53712
#        71927
#        88184
#        107838
#        132311
#        149337
#        163390
#        182307
#
# Disc length: 2673 seconds
#
# Revision: 0
# Processed by: cddbd v1.5.2PL0 Copyright (c) Steve Scherf et al.
# Submitted via: ExactAudioCopy v0.95a4
#
DISCID=9a0a6f0b
DTITLE=Big Head Todd and The Monsters - Black Beehive
DYEAR=2014
DGENRE=Rock
TTITLE0=Hey Delia
TTITLE1=Everything About You
TTITLE2=Seven State Lines
TTITLE3=Josephina
TTITLE4=Black Beehive
TTITLE5=We Won't Go Back
TTITLE6=Fear Greed And Ignorance
TTITLE7=Hubert's Dream
TTITLE8=I Get Smooth
TTITLE9=Travelin' Light
TTITLE10=Forever Bonnie
EXTD=
EXTT0=
EXTT1=
EXTT2=
EXTT3=
EXTT4=
EXTT5=
EXTT6=
EXTT7=
EXTT8=
EXTT9=
EXTT10=
PLAYORDER=
